# xmcd
#
# Track frame offsets: 
#        150
#        26155
#        50787
#        74379
#        101137
#        130237
#        149548
#        168303
#        186335
#        211615
#
# Disc length: 3142 seconds
#
# Revision: 0
# Processed by: cddbd v1.5.2PL0 Copyright (c) Steve Scherf et al.
# Submitted via: ExactAudioCopy v0.99pb5
#
DISCID=9a0c440a
DTITLE=Giang Tu - Tuyet pham Vol.1
DYEAR=1900
DGENRE=Soundtrack
TTITLE0=Chuyen di ve sang
TTITLE1=No va toi
TTITLE2=Tam su nguoi hat bai hat que huong
TTITLE3=Loi thu xua
TTITLE4=Chuyen mot nguoi di
TTITLE5=Tinh em bien rong song dai
TTITLE6=Ke o mien xa
TTITLE7=Yeu nguoi nhu the do
TTITLE8=Loi dang cho mot cuoc tinh
TTITLE9=Trang tan tren he pho
EXTD=
EXTT0=
EXTT1=
EXTT2=
EXTT3=
EXTT4=
EXTT5=
EXTT6=
EXTT7=
EXTT8=
EXTT9=
PLAYORDER=
